<svg id="Layer_1" enable-background="new 0 0 512.002 512.002" height="512" viewBox="0 0 512.002 512.002" width="512" xmlns="http://www.w3.org/2000/svg"><g><g clip-rule="evenodd" fill-rule="evenodd"><g fill="#cfd3df"><path d="m55 143.501h22.5c12.375 0 22.5-10.125 22.5-22.5s-10.125-22.5-22.5-22.5h-22.5-22.5c-12.375 0-22.5 10.125-22.5 22.5s10.124 22.5 22.5 22.5z"/><path d="m77.501 188.501h-22.501-22.5c-12.375 0-22.5 10.125-22.5 22.5s10.124 22.5 22.5 22.5h22.5 22.5c12.375 0 22.5-10.125 22.5-22.5s-10.124-22.5-22.499-22.5z"/><path d="m77.501 278.501h-22.501-22.5c-12.375 0-22.5 10.125-22.5 22.5s10.124 22.5 22.5 22.5h22.5 22.5c12.375 0 22.5-10.125 22.5-22.5s-10.124-22.5-22.499-22.5z"/><path d="m77.501 368.501h-22.501-22.5c-12.375 0-22.5 10.125-22.5 22.5s10.124 22.5 22.5 22.5h22.5 22.5c12.375 0 22.5-10.125 22.5-22.5s-10.124-22.5-22.499-22.5z"/></g><path d="m55 323.501v45h22.5c12.375 0 22.5 10.125 22.5 22.5s-10.125 22.5-22.5 22.5h-22.5v28.501c0 33 27 60 60 60h30v-492.002h-30c-32.998 0-60 27-60 60v28.501h22.5c12.375 0 22.5 10.125 22.5 22.5s-10.125 22.5-22.5 22.5h-22.5v45h22.5c12.375 0 22.5 10.125 22.5 22.5s-10.125 22.5-22.5 22.5h-22.5v45h22.5c12.375 0 22.5 10.125 22.5 22.5s-10.125 22.5-22.5 22.5z" fill="#66e0f7"/><path d="m145 10v492.001h252.003c33 0 60-27.002 60-60v-93.001-93-93-93c0-32.998-27.001-60-60-60zm94.947 307.055c-63.69-63.976-44.475-120.404-26.563-148.585 17.946-28.234 31.464-13.758 31.464-13.758s29.573 29.573 34.048 34.048c5.361 5.361 5.482 13.278-1.507 20.267-30.689 30.69-30.927 42.77-1.555 72.142s41.452 29.134 72.141-1.556c6.989-6.989 14.905-6.867 20.267-1.507 4.474 4.475 34.048 34.048 34.048 34.048s14.476 13.519-13.758 31.464c-28.18 17.912-84.609 37.128-148.585-26.563z" fill="#66e0f7"/><path d="m213.384 168.47c-17.912 28.181-37.127 84.61 26.563 148.585 63.976 63.691 120.405 44.475 148.586 26.563 28.234-17.945 13.758-31.464 13.758-31.464s-29.574-29.573-34.048-34.048c-5.362-5.361-13.278-5.482-20.267 1.507-30.69 30.69-42.77 30.927-72.141 1.556-29.372-29.372-29.134-41.452 1.555-72.142 6.989-6.989 6.867-14.905 1.507-20.267-4.475-4.475-34.048-34.048-34.048-34.048s-13.519-14.477-31.465 13.758z" fill="#fff"/><path d="m457.003 70v93h22.5c12.375 0 22.5-10.124 22.5-22.499v-48.002c0-12.375-10.125-22.499-22.5-22.499z" fill="#ff5d7d"/><path d="m479.502 163.001h-22.5v93h22.5c12.375 0 22.5-10.125 22.5-22.499v-48.002c0-12.375-10.125-22.499-22.5-22.499z" fill="#cbe558"/><path d="m479.502 256.001h-22.5v93h22.5c12.375 0 22.5-10.124 22.5-22.499v-48.002c0-12.374-10.125-22.499-22.5-22.499z" fill="#ff764e"/><path d="m479.502 349.001h-22.5v93.001h22.5c12.375 0 22.5-10.125 22.5-22.499v-48.002c0-12.375-10.125-22.5-22.5-22.5z" fill="#ffea60"/></g><g><path d="m512.002 92.499c0-17.92-14.579-32.499-32.5-32.499h-13.225c-4.869-33.877-34.072-60-69.274-60h-282.003c-38.599 0-70 31.402-70 70v18.5h-12.5c-17.921 0-32.5 14.58-32.5 32.5s14.579 32.5 32.5 32.5h12.5v25h-12.5c-17.921 0-32.5 14.58-32.5 32.5s14.579 32.5 32.5 32.5h12.5v25h-12.5c-17.921 0-32.5 14.58-32.5 32.5s14.579 32.5 32.5 32.5h12.5v25h-12.5c-17.921 0-32.5 14.58-32.5 32.5s14.579 32.5 32.5 32.5h12.5v18.5c0 38.598 31.401 70 70 70h282.003c35.203 0 64.406-26.123 69.274-60h13.225c17.921 0 32.5-14.579 32.5-32.499v-48.001c0-8.724-3.455-16.655-9.068-22.499 5.613-5.844 9.068-13.775 9.068-22.499v-48.002c0-8.724-3.455-16.655-9.068-22.499 5.613-5.844 9.068-13.775 9.068-22.499v-48.002c0-8.724-3.455-16.655-9.068-22.499 5.613-5.844 9.068-13.775 9.068-22.499zm-492.002 28.502c0-6.893 5.607-12.5 12.5-12.5h45.001c6.892 0 12.499 5.607 12.499 12.5s-5.607 12.5-12.499 12.5h-45.001c-6.893 0-12.5-5.607-12.5-12.5zm0 90c0-6.893 5.607-12.5 12.5-12.5h45.001c6.892 0 12.499 5.607 12.499 12.5s-5.607 12.5-12.499 12.5h-45.001c-6.893 0-12.5-5.607-12.5-12.5zm0 90c0-6.893 5.607-12.5 12.5-12.5h45.001c6.892 0 12.499 5.607 12.499 12.5s-5.607 12.5-12.499 12.5h-45.001c-6.893 0-12.5-5.607-12.5-12.5zm0 90c0-6.893 5.607-12.5 12.5-12.5h45.001c6.892 0 12.499 5.607 12.499 12.5s-5.607 12.5-12.499 12.5h-45.001c-6.893 0-12.5-5.607-12.5-12.5zm377.003 101.001h-242.003v-392.002c0-5.523-4.478-10-10-10s-10 4.477-10 10v392.001h-20c-27.57 0-50-22.43-50-50v-18.5h12.501c17.92 0 32.499-14.58 32.499-32.5s-14.579-32.5-32.499-32.5h-12.501v-24.999h12.501c17.92 0 32.499-14.58 32.499-32.5s-14.579-32.5-32.499-32.5h-12.501v-24.999h12.501c17.92 0 32.499-14.58 32.499-32.5s-14.579-32.5-32.499-32.5h-12.501v-24.999h12.501c17.92 0 32.499-14.58 32.499-32.5s-14.579-32.5-32.499-32.5h-12.501v-18.504c0-27.57 22.43-50 50-50h282.003c27.57 0 50 22.43 50 50v372.002c0 27.57-22.43 50-50 50zm94.999-72.499c0 6.892-5.607 12.499-12.5 12.499h-12.499v-73h12.499c6.893 0 12.5 5.607 12.5 12.499zm0-93.001c0 6.892-5.607 12.499-12.5 12.499h-12.499v-73h12.499c6.893 0 12.5 5.607 12.5 12.499zm0-93c0 6.892-5.607 12.499-12.5 12.499h-12.499v-73h12.499c6.893 0 12.5 5.607 12.5 12.499zm0-93.001c0 6.892-5.607 12.499-12.5 12.499h-12.499v-73h12.499c6.893 0 12.5 5.607 12.5 12.499z"/><path d="m375.312 271.034c-9.685-9.684-23.834-9.064-34.408 1.508-14.139 14.138-23.022 20.231-29.706 20.374-6.598.109-14.786-5.312-28.293-18.819-13.507-13.506-18.959-21.704-18.818-28.292.143-6.684 6.235-15.568 20.374-29.707 5.126-5.126 7.996-11.117 8.302-17.324.311-6.325-2.103-12.393-6.795-17.084l-34.048-34.049c-1.47-1.474-8.165-7.498-18.468-6.539-10.241.95-19.832 8.353-28.508 22.003-9.181 14.445-19.908 37.724-18.873 66.591 1.169 32.637 16.911 64.402 46.789 94.413.011.011.021.021.031.032 30.012 29.877 61.776 45.62 94.413 46.789 1.304.047 2.593.069 3.874.069 27.076 0 48.926-10.176 62.718-18.943 13.649-8.675 21.053-18.267 22.003-28.508.957-10.31-5.064-16.997-6.538-18.467zm20.673 50.668c-.124 1.329-1.412 6.228-12.817 13.477-25.264 16.059-76.541 34.139-136.149-25.195-59.334-59.608-41.253-110.886-25.195-136.15 7.079-11.138 11.962-12.609 13.29-12.795 1.42-.198 2.4.521 2.658.738l.006.006 34.049 34.048c1.007 1.008.974 1.7.96 1.96-.055 1.117-.978 2.673-2.468 4.164-15.961 15.961-25.916 28.792-26.227 43.423-.315 14.78 9.635 27.824 24.671 42.86 15.037 15.036 28.046 24.994 42.861 24.672 14.63-.312 27.462-10.267 43.423-26.228 3.812-3.815 5.434-2.197 6.125-1.507l34.047 34.048c.081.081.163.16.246.238.007.008.633 1.027.52 2.241z"/><path d="m145 45c-5.522 0-10 4.48-10 10.003s4.478 10 10 10 10-4.477 10-10v-.007c0-5.523-4.478-9.996-10-9.996z"/></g></g></svg>