<svg xmlns="http://www.w3.org/2000/svg" width="1059.666" height="1418.779" viewBox="0 0 1059.666 1418.779">
  <g id="Logvinov_-_logo_8" data-name="Logvinov - logo 8" transform="translate(-2803.794 3)">
    <g id="Group_242" data-name="Group 242" transform="translate(2863.485 -30)">
      <path id="Union_2" data-name="Union 2" d="M288.455,154.045c-39.029-7.015-79.461,4.438-79.461,4.438s6.61-19.778,51.225-40.391,70.608-16.8,70.608-16.8-5.676,2.642-13.176,11.774-5,14.544-5,14.544,18.285,7.951,31.4,22.684,21.062,36.251,21.062,36.251S327.485,161.062,288.455,154.045ZM21.065,150.3c13.116-14.734,31.4-22.686,31.4-22.686s2.495-5.412-5.005-14.544-13.174-11.774-13.174-11.774,25.994-3.814,70.607,16.8,51.225,40.391,51.225,40.391-40.43-11.453-79.461-4.436S0,186.546,0,186.546,7.948,165.03,21.065,150.3Zm204.7-62.008c8.88-30.456,9.248-65.591,9.248-65.591A58.542,58.542,0,0,0,240.8,33.1a54.223,54.223,0,0,0,7.938,8.5s10.745-1.122,18.806-8.5,13.441-21,13.441-21,2.321,55.768-29.166,93.466-52.328,38.957-52.328,38.957S216.884,118.744,225.764,88.289ZM113.291,105.564C81.8,67.866,84.125,12.1,84.125,12.1s5.378,13.624,13.439,21,18.808,8.5,18.808,8.5a54.2,54.2,0,0,0,7.937-8.5A58.469,58.469,0,0,0,130.1,22.7s.37,35.135,9.25,65.593,26.269,56.231,26.269,56.231S144.778,143.264,113.291,105.564Zm69.265,33.3-.13.162V138.7c-2.479-3.149-21.871-28.74-21.871-58.542s19.393-63.812,21.871-68.037v-.438l.13.218c.085-.144.13-.218.13-.218v.438c2.479,4.225,21.871,38.236,21.871,68.037s-19.393,55.392-21.871,58.542v.326S182.642,138.974,182.556,138.867ZM55.3,85.753C47.313,81.816,43.646,74.626,43.646,71.4c0-9.28,5.077-12.916,14.37-12.916,2.955,0,10.409,4.841,15.87,10.907C84.494,81.165,94.391,99.621,94.391,99.621S71.542,93.764,55.3,85.753ZM291.226,69.389c5.463-6.068,12.916-10.907,15.872-10.907,9.293,0,14.37,3.634,14.37,12.914,0,3.23-3.668,10.418-11.654,14.355-16.245,8.011-39.092,13.868-39.092,13.868S280.619,81.165,291.226,69.389ZM202.058,23.626c-1.86-6.913-1.865-14.7-.453-16.874,4.441-6.827,9.545-8.822,16.383-4.387,2.38,1.542,5.923,7.674,5.008,15.423-1.859,15.765-8.461,35.35-8.461,35.35S205.667,37.048,202.058,23.626Zm-59.944-5.839c-.915-7.749,2.629-13.879,5.01-15.423,6.838-4.433,11.942-2.44,16.383,4.389,1.412,2.171,1.408,9.961-.453,16.874-3.609,13.42-12.478,29.51-12.478,29.51S143.974,33.552,142.114,17.787Z" transform="translate(287 47.768)" fill="#fff"/>
      <circle id="Ellipse_6" data-name="Ellipse 6" cx="13" cy="13" r="13" transform="translate(456.184 27)" fill="#fff"/>
      <circle id="Ellipse_7" data-name="Ellipse 7" cx="26" cy="26" r="26" transform="translate(443.184 196)" fill="#fff"/>
    </g>
    <path id="Union_3" data-name="Union 3" d="M-892.908,107.775C-946.86,76.8-1008.662,59.156-1008.662,59.156s57.045-7.353,101.334,0c29.1,4.834,89.141,33.783,89.141,33.783s-25.678-4.194-31.094,6.736c32.519,26.527,51.26,80.2,51.26,80.2S-838.955,138.746-892.908,107.775Zm-444.019-8.1c-5.415-10.93-31.1-6.736-31.1-6.736s60.044-28.949,89.145-33.783c44.289-7.353,101.334,0,101.334,0s-61.8,17.648-115.755,48.619-94.892,72.1-94.892,72.1S-1369.45,126.2-1336.927,99.676Zm172.991-49.692a72.12,72.12,0,0,1,72.008-72.228,72.12,72.12,0,0,1,72.007,72.228,72.119,72.119,0,0,1-72.007,72.227A72.12,72.12,0,0,1-1163.935,49.983Zm375.051-5c-101.791-9.568-218.136,0-218.136,0s89.472-26.387,165.646-37.765S-702.332-.542-702.332-.542s-40.362,17.046-9.438,25.52C-645.6,42.115-597.93,78.759-597.93,78.759S-687.095,54.543-788.884,44.981Zm-685.553-20c30.921-8.475-9.438-25.52-9.438-25.52s62.868-3.621,139.043,7.757,165.646,37.765,165.646,37.765-116.35-9.568-218.141,0-190.955,33.778-190.955,33.778S-1540.608,42.115-1474.437,24.978Zm666.451-131.815s-15.271,52.8,0,36.258c7.868-8.528,45.452-37.11,107.7-123.8,58.129-85.219,107.31-189.029,107.31-189.029s3.419,51.941-21.7,135.73c7.2,12.678,51.409-41.078,51.409-41.078S-628.043-150.761-738.115-70.579-1003.55,31.97-1003.55,31.97-911.188-7.091-807.987-106.837ZM-1448.1-70.579c-110.071-80.182-174.839-218.175-174.839-218.175s44.2,53.757,51.4,41.078c-25.117-83.789-21.695-135.73-21.695-135.73s49.177,103.81,107.311,189.029c62.239,86.687,99.827,115.27,107.7,123.8,15.27,16.545,0-36.258,0-36.258,103.2,99.746,195.559,138.807,195.559,138.807S-1338.026,9.6-1448.1-70.579ZM-1017.14,5.2c-4.963-8.489-14.641-16.535-14.641-16.535s21.132,2.494,50.117-4.444,65.82-23.31,65.82-23.31-23.671,24.851-47.688,40.279a180.306,180.306,0,0,1-48.389,21.432A40.745,40.745,0,0,0-1017.14,5.2Zm-205.534-4.011c-24.021-15.428-47.688-40.279-47.688-40.279s36.834,16.371,65.815,23.31,50.122,4.444,50.122,4.444S-1164.1-3.292-1169.067,5.2a40.745,40.745,0,0,0-5.218,17.421A180.226,180.226,0,0,1-1222.674,1.187Z" transform="translate(4426.73 1235.901)" fill="#fff"/>
    <g id="Group_248" data-name="Group 248" transform="translate(151.876 242.062)">
      <g id="Group_247" data-name="Group 247" transform="translate(2832.609 15.098)">
        <path id="Path_116" data-name="Path 116" d="M853.411,480.668s-187.028-20.791-124.69-236.917l-223.866-74.6v-.176l-.284.088-.27-.088v.176l-223.865,74.6c62.318,216.126-124.7,236.917-124.7,236.917,0,378.2,334.259,557.423,348.56,564.9v.269a2.077,2.077,0,0,0,.27-.137,2.818,2.818,0,0,0,.284.137v-.269C519.162,1038.091,853.411,858.87,853.411,480.668Z" transform="translate(-155.741 -168.974)" fill="#fff" stroke="rgba(0,0,0,0)" stroke-miterlimit="10" stroke-width="1"/>
        <path id="Path_117" data-name="Path 117" d="M807.853,469.34S627.093,439.282,684.922,238.874l-200.276-63.25v-.147l-.26.064-.24-.064v.147L283.37,240.814C341.179,441.2,160.915,469.34,160.915,469.34c0,350.736,309.954,512.053,323.231,519.017v.255a1.176,1.176,0,0,1,.24-.118,1.244,1.244,0,0,1,.26.118v-.255C497.894,981.393,807.853,820.077,807.853,469.34Z" transform="translate(-135.556 -143.605)" fill="#54595f" stroke="rgba(0,0,0,0)" stroke-miterlimit="10" stroke-width="1"/>
      </g>
      <path id="Path_182" data-name="Path 182" d="M306.818,125.979c-19.263,47.511-44.653,81.712-110.771,81.712H106.554v-372.2a39.988,39.988,0,0,1,39.973-39.237h7.894l.1-6.24H18l.1,6.24H26a39.988,39.988,0,0,1,39.973,39.237V181.315a39.968,39.968,0,0,1-39.96,39.237H18.115l-.1,6.24H276.7l36.373-100.8Z" transform="translate(3029.062 418.902)" fill="#fff"/>
    </g>
  </g>
</svg>
